<?xml version="1.0" encoding="UTF-8"?>
<svg width="64px" height="65px" viewBox="0 0 64 65" version="1.1" xmlns="http://www.w3.org/2000/svg" xmlns:xlink="http://www.w3.org/1999/xlink">
    <!-- Generator: Sketch 50.2 (55047) - http://www.bohemiancoding.com/sketch -->
    <title>delete</title>
    <desc>Created with Sketch.</desc>
    <defs></defs>
    <g id="Page-1" stroke="none" stroke-width="1" fill="none" fill-rule="evenodd">
        <g id="delete" fill="#000000" fill-rule="nonzero">
            <path d="M61.2,54.5 L45.4,40 C43.8,38.5 41.5,38.4 39.8,39.5 L32.7,32.3 L38.4,26.5 L40.3,28.4 C41.4,29.5 42.8,30.1 44.3,30.1 C45.8,30.1 47.2,29.5 48.3,28.4 L60.3,16.2 C63.9,12.5 63.9,6.5 60.3,2.8 C60.3,2.8 60.3,2.8 60.3,2.8 C59.9,2.4 59.3,2.4 58.9,2.8 L31.3,30.8 L20,19.4 C22.1,16.6 21.9,12.5 19.3,9.9 L10.5,1 C10.1,0.6 9.5,0.6 9.1,1 C8.7,1.4 8.7,2.1 9.1,2.5 L17.9,11.4 C19.7,13.2 19.9,15.9 18.6,17.9 L6.2,5.3 C5.8,4.9 5.2,4.9 4.8,5.3 C4.4,5.7 4.4,6.4 4.8,6.8 L17.1,19.3 C16.3,19.9 15.3,20.2 14.3,20.2 C14.3,20.2 14.3,20.2 14.3,20.2 C12.9,20.2 11.6,19.7 10.7,18.7 L1.9,9.8 C1.5,9.4 0.9,9.4 0.5,9.8 C0.1,10.2 0.1,10.9 0.5,11.3 L9.3,20.2 C10.7,21.6 12.4,22.3 14.4,22.3 C14.4,22.3 14.4,22.3 14.4,22.3 C16,22.3 17.4,21.8 18.6,20.9 L29.9,32.4 L24,38.4 C22.3,37.3 20,37.4 18.4,38.9 L2.6,53.2 C1.4,54.3 0.7,56 0.7,57.6 C0.7,59.3 1.5,60.9 2.8,62 C3.8,62.9 5.1,63.3 6.4,63.3 C8,63.3 9.7,62.6 10.9,61.3 L25,45.4 C26.4,43.8 26.6,41.5 25.5,39.7 L31.4,33.7 L38.5,40.9 C37.4,42.7 37.6,45 39,46.6 L53,62.6 C54.2,63.9 55.9,64.6 57.5,64.6 C58.8,64.6 60.1,64.2 61.1,63.3 C62.4,62.2 63.1,60.6 63.2,58.9 C63.2,57.3 62.5,55.6 61.2,54.5 Z M58.9,14.7 L46.9,26.9 C45.5,28.3 43.1,28.3 41.8,26.9 L39.9,25 L59.6,5 C61.8,7.8 61.5,12 58.9,14.7 Z M23.4,44 L9.3,59.9 C7.9,61.5 5.5,61.7 4,60.4 C3.2,59.7 2.7,58.7 2.7,57.6 C2.7,56.5 3.1,55.5 3.9,54.7 L19.7,40.2 C20.2,39.7 20.8,39.5 21.5,39.5 C22.2,39.5 22.8,39.8 23.3,40.3 C24.3,41.3 24.4,43 23.4,44 Z M59.8,61.8 C58.3,63.1 55.9,62.8 54.5,61.3 L40.4,45.3 C39.5,44.2 39.5,42.6 40.5,41.6 C41,41.1 41.7,40.8 42.3,40.8 C42.9,40.8 43.6,41 44.1,41.5 L59.9,56 C60.7,56.7 61.1,57.8 61.1,58.9 C61.1,60 60.6,61 59.8,61.8 Z" id="Shape"></path>
        </g>
    </g>
</svg>